<svg width="1200" height="1400" viewBox="0 0 1200 1400" fill="none" xmlns="http://www.w3.org/2000/svg">
  <rect width="1200" height="1400" fill="#F8ECE7"/>
  <rect width="1200" height="1400" fill="url(#paint0_linear_1_2)"/>
  <circle cx="911" cy="299" r="248" fill="#EBC7C2" fill-opacity="0.65"/>
  <circle cx="255" cy="1148" r="286" fill="#E1B4AE" fill-opacity="0.42"/>
  <path d="M702 290C628 330 604 428 619 521C633 610 672 692 706 780C742 876 770 985 742 1082C718 1165 659 1231 576 1260" stroke="#6B3639" stroke-width="16" stroke-linecap="round"/>
  <path d="M569 411C623 477 687 520 757 561" stroke="#A96F70" stroke-width="12" stroke-linecap="round"/>
  <path d="M600 565C530 626 481 711 455 805" stroke="#A96F70" stroke-width="12" stroke-linecap="round"/>
  <rect x="130" y="104" width="308" height="78" rx="39" fill="#FFF8F5" fill-opacity="0.85"/>
  <text x="174" y="153" fill="#8C5E60" font-family="Georgia, serif" font-size="28" letter-spacing="5">MOVE STUDIO</text>
  <text x="130" y="1188" fill="#5A2D2F" font-family="Georgia, serif" font-size="94">Grace in Motion</text>
  <text x="130" y="1250" fill="#8A6868" font-family="Arial, sans-serif" font-size="34">Dancewear designed for rehearsal, class and performance.</text>
  <defs>
    <linearGradient id="paint0_linear_1_2" x1="600" y1="0" x2="600" y2="1400" gradientUnits="userSpaceOnUse">
      <stop stop-color="#FAF1EE"/>
      <stop offset="1" stop-color="#F2DDD7"/>
    </linearGradient>
  </defs>
</svg>
