<svg width="1200" height="630" viewBox="0 0 1200 630" fill="none" xmlns="http://www.w3.org/2000/svg">
  <rect width="1200" height="630" fill="#F4D8D2"/>
  <rect width="1200" height="630" fill="url(#paint0_linear_1_1)"/>
  <circle cx="992" cy="119" r="160" fill="#E6BBB5"/>
  <circle cx="156" cy="523" r="202" fill="#E9C6C0"/>
  <rect x="64" y="64" width="1072" height="502" rx="34" fill="#FFF8F5" fill-opacity="0.84" stroke="#E1C2BC"/>
  <text x="104" y="170" fill="#8C5E60" font-family="Arial, sans-serif" font-size="24" font-weight="700" letter-spacing="6">MOVE DANCEWEAR</text>
  <text x="104" y="292" fill="#5A2D2F" font-family="Georgia, serif" font-size="84">Premium Dancewear</text>
  <text x="104" y="376" fill="#5A2D2F" font-family="Georgia, serif" font-size="84">&amp; Dance Shoes</text>
  <text x="104" y="452" fill="#7B6061" font-family="Arial, sans-serif" font-size="34">Elegant studio layers for women, men, and kids.</text>
  <rect x="104" y="486" width="286" height="52" rx="26" fill="#6B3639"/>
  <text x="151" y="520" fill="white" font-family="Arial, sans-serif" font-size="22" font-weight="700" letter-spacing="3">SHOP MOVE</text>
  <path d="M836 138C767 191 738 294 751 385C763 469 804 539 852 598" stroke="#6B3639" stroke-width="18" stroke-linecap="round"/>
  <path d="M759 275C824 315 887 325 953 321" stroke="#A96F70" stroke-width="12" stroke-linecap="round"/>
  <path d="M791 396C742 429 706 484 688 549" stroke="#A96F70" stroke-width="12" stroke-linecap="round"/>
  <defs>
    <linearGradient id="paint0_linear_1_1" x1="600" y1="0" x2="600" y2="630" gradientUnits="userSpaceOnUse">
      <stop stop-color="#EFC9C2"/>
      <stop offset="1" stop-color="#F8EAE5"/>
    </linearGradient>
  </defs>
</svg>
